<svg id="user_1_" data-name="user (1)" xmlns="http://www.w3.org/2000/svg" width="24" height="27.307" viewBox="0 0 24 27.307">
  <g id="Group_96" data-name="Group 96" transform="translate(4.8)">
    <g id="Group_95" data-name="Group 95" transform="translate(0)">
      <path id="Path_15725" data-name="Path 15725" d="M128.2,0A7.2,7.2,0,1,1,121,7.2,7.208,7.208,0,0,1,128.2,0Zm0,12.8a5.6,5.6,0,1,0-5.6-5.6A5.606,5.606,0,0,0,128.2,12.8Z" transform="translate(-121)" fill="#2581bc"/>
    </g>
  </g>
  <g id="Group_98" data-name="Group 98" transform="translate(0 16.053)">
    <g id="Group_97" data-name="Group 97">
      <path id="Path_15726" data-name="Path 15726" d="M40.769,301h4.462A11.564,11.564,0,0,1,55,306.358v5.9H31v-5.9A11.567,11.567,0,0,1,40.769,301ZM32.6,310.653H53.4v-3.806a9.958,9.958,0,0,0-8.169-4.247H40.769a9.958,9.958,0,0,0-8.169,4.247Z" transform="translate(-31 -301)" fill="#2581bc"/>
    </g>
  </g>
</svg>
